<?xml version="1.0" encoding="utf-8"?>
<!-- Generator: Adobe Illustrator 23.0.1, SVG Export Plug-In . SVG Version: 6.00 Build 0)  -->
<svg version="1.1" id="Layer_1" xmlns="http://www.w3.org/2000/svg" xmlns:xlink="http://www.w3.org/1999/xlink" x="0px" y="0px"
	 width="133px" height="50.9px" viewBox="0 0 133 50.9" style="enable-background:new 0 0 133 50.9;" xml:space="preserve">
<style type="text/css">
	.st0{fill:#4AD8C4;}
	.st1{fill:#3EC6AF;}
	.st2{fill:#F24F28;}
	.st3{fill:#020202;}
	.st4{fill:none;stroke:#F24F28;stroke-width:0.75;stroke-miterlimit:10;}
</style>
<g>
	<path d="M0,43.7l2.1-2.1c0.9,2,2.3,2.9,4.2,2.9c1.3,0,2.3-0.5,3-1.4c0.7-1,1.3-2.6,1.8-4.9l3.5-17.5h-4l2.1-2.2h9.8L20,20.7h-2.3
		l-3,14.9c-0.7,3.3-1.8,5.8-3.5,7.6c-1.7,1.8-3.7,2.6-6.1,2.6C3.3,45.7,1.5,45,0,43.7z"/>
	<path d="M33.2,32.6h-0.3c-1.1,2.5-2.5,4.6-4.1,6.2c-1.6,1.6-3.1,2.4-4.5,2.4c-2.1,0-3.2-1.3-3.2-4c0-2.9,1.2-5.8,3.5-8.6
		c2.4-2.9,5.4-4.4,8.9-4.4c1.4,0,3,0.1,4.5,0.2l-1.1,4.5l-1.5,7.5c-0.2,1.2-0.3,1.9-0.3,2.3c0,0.6,0.3,1,0.9,1c1,0,2.5-1.1,4.5-3.3
		l-0.3,1.4c-2.2,2.4-4.2,3.6-6,3.6c-1.5,0-2.2-0.8-2.2-2.3c0-0.5,0.1-1.4,0.4-2.6L33.2,32.6z M34.4,26.5c-1.3-0.6-2.5-0.8-3.8-0.8
		c-1.8,0-3.3,1.2-4.4,3.5c-1.3,2.7-1.9,5.2-1.9,7.4c0,1.6,0.5,2.4,1.4,2.4c0.9,0,2.1-0.9,3.7-2.7c1.6-1.8,3.1-3.9,4.3-6.3L34.4,26.5
		z"/>
	<path d="M43.1,41l1.1-4.7l1.5-7.5c0.2-1.2,0.3-1.9,0.3-2.3c0-0.6-0.3-0.9-0.9-0.9c-1,0-2.5,1.1-4.5,3.3l0.3-1.4
		c2.2-2.4,4.2-3.6,6-3.6c1.5,0,2.2,0.8,2.2,2.3c0,0.5-0.1,1.4-0.3,2.6L48,32.6h0.2c1.3-2.6,2.7-4.7,4.2-6.3s2.9-2.3,4.2-2.3
		c0.7,0,1.2,0.3,1.7,0.8c0.5,0.5,0.7,1.2,0.7,2c0,0.6-0.1,1.3-0.3,2.1L58,32.6h0.2c1.1-2.5,2.4-4.6,4-6.2c1.5-1.6,2.9-2.4,4.2-2.4
		c1.8,0,2.7,0.9,2.7,2.9c0,0.6-0.1,1.3-0.2,2.1l-1.5,7.4c-0.2,1.2-0.3,1.9-0.3,2.3c0,0.6,0.3,1,0.9,1c1,0,2.5-1.1,4.5-3.3l-0.3,1.4
		c-2.2,2.4-4.2,3.6-6,3.6c-1.5,0-2.2-0.8-2.2-2.3c0-0.5,0.1-1.4,0.4-2.6l1.5-7.4c0.1-0.7,0.2-1.2,0.2-1.5c0-0.8-0.3-1.3-0.9-1.3
		c-1.8,0-4.3,3-7.6,9.1l-1.1,5.5l-3,0.2l2.4-12c0.1-0.7,0.2-1.2,0.2-1.5c0-0.9-0.3-1.3-0.9-1.3c-0.8,0-1.9,0.9-3.4,2.7
		c-1.5,1.8-2.9,4-4.3,6.6l-1.1,5.4L43.1,41z"/>
	<path d="M71.8,40.3l2-2c1.3,1,2.6,1.4,4,1.4c0.8,0,1.5-0.2,2.1-0.7c0.6-0.4,0.9-1,0.9-1.6c0-0.7-0.6-1.7-1.7-2.9L77.7,33
		c-1.3-1.5-2-2.7-2-3.7c0-1.4,0.7-2.6,2-3.7s2.8-1.6,4.5-1.6c0.9,0,1.9,0.2,3.1,0.6l-0.7,3.3h-1l0-0.3c0-0.1,0-0.2,0-0.3
		c0-1.4-0.9-2-2.6-2c-2,0-2.9,0.8-2.9,2.4c0,0.8,0.6,1.9,1.8,3.2l1.2,1.4c1.4,1.5,2,2.8,2,3.8c0,1.4-0.7,2.6-2.2,3.6
		c-1.4,1.1-3.1,1.6-4.9,1.6C74.8,41.2,73.4,40.9,71.8,40.3z"/>
	<path d="M80,48.2l1.6-1.7c0.7,0.3,1.5,0.4,2.2,0.4c1.1,0,1.9-0.4,2.5-1.1c0.6-0.7,1-1.9,1.3-3.6l2.2-12.8h-2.5l0.8-0.8h1.9l0-0.1
		c0.4-2.2,1.4-4,3-5.3c1.5-1.4,3.3-2,5.4-2c0.7,0,1.3,0.1,1.8,0.2L98.5,23c-0.7-0.4-1.4-0.7-2.2-0.7c-1.1,0-2,0.3-2.5,1
		c-0.5,0.7-1,1.9-1.4,3.7l-0.3,1.6h4.2l-0.9,1c-1-0.1-1.9-0.2-2.9-0.2H92l-1.6,9.7c-0.5,3-1.5,5.2-3,6.8c-1.5,1.6-3.3,2.4-5.6,2.4
		C81.3,48.4,80.6,48.3,80,48.2z"/>
</g>
<path class="st0" d="M104.6,10.9c-0.9-0.1-2-0.4-3.1-0.9c-2-1-3.4-2.4-4.3-4.5c-0.3-0.6-0.5-1.3-0.7-2c-0.2-0.5-0.1-0.6,0.5-0.6
	c1.9,0.1,3.5,0.8,5,1.9c1.6,1.1,2.5,2.7,3.2,4.5c0.1,0.3,0.2,0.6,0.2,0.9C105.5,10.9,105.5,10.9,104.6,10.9z"/>
<path class="st0" d="M107.4,9.7c0.9-0.4,1.8-0.9,2.7-1.7c1.7-1.4,2.7-3.2,3-5.4c0.1-0.7,0.1-1.4,0.2-2.1c0-0.5-0.1-0.6-0.6-0.5
	c-1.8,0.6-3.2,1.7-4.3,3.1c-1.2,1.5-1.7,3.3-1.9,5.2c0,0.3,0,0.6,0,0.9C106.5,10,106.5,10,107.4,9.7z"/>
<path class="st0" d="M125.8,33.4c0.7-0.7,1.3-1.3,2-2c3.8-4,4.9-8.9,2.9-13c-1.9-3.8-5.1-5.9-9.1-7c-6.2-1.7-13,1.5-15.7,7.2
	c-2.2,4.7-0.6,11.3,3.8,14.9c1,0.8,1.4,1.5,0.5,2.6c-0.9,1.1-1.7,0.5-2.6-0.1c-6.9-4.9-9.2-18.2,1.6-24.8c6.2-3.8,14.3-3.1,19.7,1.8
	c6.4,6,5.4,15.8-2.7,20.6C126,33.6,125.9,33.5,125.8,33.4z"/>
<path class="st2" d="M117,31.8c3.1-5.1,5.7-10.3,9.4-15c0.4,0.8-0.1,1.3-0.3,1.8c-2.9,7.6-5.9,15.1-8.6,22.7
	c-0.7,1.9-1.6,2.6-3.5,2.2c-0.5-0.1-1-0.1-1.7-0.1c0.8-2.2,1.5-4.4,2.3-6.5c0.4-1,0.4-1.9-0.1-2.9c-1.6-3.6-3.1-7.3-4.7-11
	c-0.5-1.1-0.3-1.3,0.9-1.4c1.9-0.1,2.9,0.4,3.5,2.4C114.9,26.6,116,29.1,117,31.8z"/>
<line class="st4" x1="100.2" y1="19.1" x2="36.2" y2="19.5"/>
<line class="st4" x1="100.2" y1="17.7" x2="56.3" y2="18.1"/>
<line class="st4" x1="100.2" y1="16.3" x2="81.7" y2="16.3"/>
<path d="M128.1,45.4c-8.9-1.3-17.8-1.3-26.6,0.1C110.3,42,119.2,41.3,128.1,45.4z"/>
</svg>
